<svg width="64" height="64" viewBox="0 0 64 64" fill="none" xmlns="http://www.w3.org/2000/svg">
<path d="M31.9677 49.9724C30.8737 49.9904 29.9837 50.9044 29.9997 52.0004V56.0004C29.9997 56.0104 29.9997 56.0184 29.9997 56.0284C29.9997 57.1264 30.9017 58.0284 31.9997 58.0284C33.0977 58.0284 33.9997 57.1264 33.9997 56.0284C33.9997 56.0184 33.9997 56.0104 33.9997 56.0004V52.0004C33.9997 51.9904 33.9997 51.9824 33.9997 51.9724C33.9997 50.8764 33.0977 49.9724 31.9997 49.9724C31.9897 49.9724 31.9797 49.9724 31.9677 49.9724ZM15.9677 29.9724C14.8737 29.9904 13.9837 30.9044 13.9997 32.0004V56.0004C13.9997 56.0104 13.9997 56.0184 13.9997 56.0284C13.9997 57.1264 14.9017 58.0284 15.9997 58.0284C17.0977 58.0284 17.9997 57.1264 17.9997 56.0284C17.9997 56.0184 17.9997 56.0104 17.9997 56.0004V32.0004C17.9997 31.9904 17.9997 31.9824 17.9997 31.9724C17.9997 30.8764 17.0977 29.9724 15.9997 29.9724C15.9897 29.9724 15.9797 29.9724 15.9677 29.9724ZM55.9677 29.9724C54.8737 29.9904 53.9837 30.9044 53.9997 32.0004V56.0004C53.9997 56.0104 53.9997 56.0184 53.9997 56.0284C53.9997 57.1264 54.9017 58.0284 55.9997 58.0284C57.0977 58.0284 57.9997 57.1264 57.9997 56.0284C57.9997 56.0184 57.9997 56.0104 57.9997 56.0004V32.0004C57.9997 31.9904 57.9997 31.9824 57.9997 31.9724C57.9997 30.8764 57.0977 29.9724 55.9997 29.9724C55.9897 29.9724 55.9797 29.9724 55.9677 29.9724ZM23.9677 25.9724C22.8737 25.9904 21.9837 26.9044 21.9997 28.0004V56.0004C21.9997 56.0104 21.9997 56.0184 21.9997 56.0284C21.9997 57.1264 22.9017 58.0284 23.9997 58.0284C25.0977 58.0284 25.9997 57.1264 25.9997 56.0284C25.9997 56.0184 25.9997 56.0104 25.9997 56.0004V28.0004C25.9997 27.9904 25.9997 27.9824 25.9997 27.9724C25.9997 26.8764 25.0977 25.9724 23.9997 25.9724C23.9897 25.9724 23.9797 25.9724 23.9677 25.9724ZM15.9677 5.97241C14.8737 5.99041 13.9837 6.90441 13.9997 8.00041V19.1724L6.58572 26.5864C6.21172 26.9604 5.99972 27.4704 5.99972 28.0004V56.0004C5.99972 56.0104 5.99972 56.0184 5.99972 56.0284C5.99972 57.1264 6.90172 58.0284 7.99972 58.0284C9.09772 58.0284 9.99972 57.1264 9.99972 56.0284C9.99972 56.0184 9.99972 56.0104 9.99972 56.0004V28.8284L17.4137 21.4144C17.7877 21.0404 17.9997 20.5304 17.9997 20.0004V8.00041C17.9997 7.99041 17.9997 7.98241 17.9997 7.97241C17.9997 6.87641 17.0977 5.97241 15.9997 5.97241C15.9897 5.97241 15.9797 5.97241 15.9677 5.97241V5.97241ZM31.9677 5.97241C30.8737 5.99041 29.9837 6.90441 29.9997 8.00041V40.0004C29.9997 40.5304 30.2117 41.0404 30.5857 41.4144L37.9997 48.8284V56.0004C37.9997 56.0104 37.9997 56.0184 37.9997 56.0284C37.9997 57.1264 38.9017 58.0284 39.9997 58.0284C41.0977 58.0284 41.9997 57.1264 41.9997 56.0284C41.9997 56.0184 41.9997 56.0104 41.9997 56.0004V48.0004C41.9997 47.4704 41.7877 46.9604 41.4137 46.5864L33.9997 39.1724V8.00041C33.9997 7.99041 33.9997 7.98241 33.9997 7.97241C33.9997 6.87641 33.0977 5.97241 31.9997 5.97241C31.9897 5.97241 31.9797 5.97241 31.9677 5.97241V5.97241ZM55.9677 5.97241C54.8737 5.99041 53.9837 6.90441 53.9997 8.00041V19.1724L46.5857 26.5864C46.2117 26.9604 45.9997 27.4704 45.9997 28.0004V56.0004C45.9997 56.0104 45.9997 56.0184 45.9997 56.0284C45.9997 57.1264 46.9017 58.0284 47.9997 58.0284C49.0977 58.0284 49.9997 57.1264 49.9997 56.0284C49.9997 56.0184 49.9997 56.0104 49.9997 56.0004V28.8284L57.4137 21.4144C57.7877 21.0404 57.9997 20.5304 57.9997 20.0004V8.00041C57.9997 7.99041 57.9997 7.98241 57.9997 7.97241C57.9997 6.87641 57.0977 5.97241 55.9997 5.97241C55.9897 5.97241 55.9797 5.97241 55.9677 5.97241V5.97241ZM47.9677 5.97241C46.8737 5.99041 45.9837 6.90441 45.9997 8.00041V15.1724L38.5857 22.5864C38.2117 22.9604 37.9997 23.4704 37.9997 24.0004V36.0004C37.9997 36.0104 37.9997 36.0184 37.9997 36.0284C37.9997 37.1264 38.9017 38.0284 39.9997 38.0284C41.0977 38.0284 41.9997 37.1264 41.9997 36.0284C41.9997 36.0184 41.9997 36.0104 41.9997 36.0004V24.8284L49.4137 17.4144C49.7877 17.0404 49.9997 16.5304 49.9997 16.0004V8.00041C49.9997 7.99041 49.9997 7.98241 49.9997 7.97241C49.9997 6.87641 49.0977 5.97241 47.9997 5.97241C47.9897 5.97241 47.9797 5.97241 47.9677 5.97241V5.97241ZM23.9677 5.97241C22.8737 5.99041 21.9837 6.90441 21.9997 8.00041V20.0004C21.9997 20.0104 21.9997 20.0184 21.9997 20.0284C21.9997 21.1264 22.9017 22.0284 23.9997 22.0284C25.0977 22.0284 25.9997 21.1264 25.9997 20.0284C25.9997 20.0184 25.9997 20.0104 25.9997 20.0004V8.00041C25.9997 7.99041 25.9997 7.98241 25.9997 7.97241C25.9997 6.87641 25.0977 5.97241 23.9997 5.97241C23.9897 5.97241 23.9797 5.97241 23.9677 5.97241V5.97241ZM7.96772 5.97241C6.87372 5.99041 5.98372 6.90441 5.99972 8.00041V16.0004C5.99972 16.0104 5.99972 16.0184 5.99972 16.0284C5.99972 17.1264 6.90172 18.0284 7.99972 18.0284C9.09772 18.0284 9.99972 17.1264 9.99972 16.0284C9.99972 16.0184 9.99972 16.0104 9.99972 16.0004V8.00041C9.99972 7.99041 9.99972 7.98241 9.99972 7.97241C9.99972 6.87641 9.09772 5.97241 7.99972 5.97241C7.98972 5.97241 7.97972 5.97241 7.96772 5.97241V5.97241ZM39.9677 5.97241C38.8737 5.99041 37.9837 6.90441 37.9997 8.00041V12.0004C37.9997 12.0104 37.9997 12.0184 37.9997 12.0284C37.9997 13.1264 38.9017 14.0284 39.9997 14.0284C41.0977 14.0284 41.9997 13.1264 41.9997 12.0284C41.9997 12.0184 41.9997 12.0104 41.9997 12.0004V8.00041C41.9997 7.99041 41.9997 7.98241 41.9997 7.97241C41.9997 6.87641 41.0977 5.97241 39.9997 5.97241C39.9897 5.97241 39.9797 5.97241 39.9677 5.97241V5.97241Z" fill="white"/>
</svg>
