<svg width="32" height="32" viewBox="0 0 32 32" fill="none" xmlns="http://www.w3.org/2000/svg">
<path d="M15.9839 24.9862C15.4369 24.9952 14.9919 25.4522 14.9999 26.0002V28.0002C14.9999 28.0052 14.9999 28.0092 14.9999 28.0142C14.9999 28.5632 15.4509 29.0142 15.9999 29.0142C16.5489 29.0142 16.9999 28.5632 16.9999 28.0142C16.9999 28.0092 16.9999 28.0052 16.9999 28.0002V26.0002C16.9999 25.9952 16.9999 25.9912 16.9999 25.9862C16.9999 25.4382 16.5489 24.9862 15.9999 24.9862C15.9949 24.9862 15.9899 24.9862 15.9839 24.9862ZM7.98386 14.9862C7.43686 14.9952 6.99186 15.4522 6.99986 16.0002V28.0002C6.99986 28.0052 6.99986 28.0092 6.99986 28.0142C6.99986 28.5632 7.45086 29.0142 7.99986 29.0142C8.54886 29.0142 8.99986 28.5632 8.99986 28.0142C8.99986 28.0092 8.99986 28.0052 8.99986 28.0002V16.0002C8.99986 15.9952 8.99986 15.9912 8.99986 15.9862C8.99986 15.4382 8.54886 14.9862 7.99986 14.9862C7.99486 14.9862 7.98986 14.9862 7.98386 14.9862ZM27.9839 14.9862C27.4369 14.9952 26.9919 15.4522 26.9999 16.0002V28.0002C26.9999 28.0052 26.9999 28.0092 26.9999 28.0142C26.9999 28.5632 27.4509 29.0142 27.9999 29.0142C28.5489 29.0142 28.9999 28.5632 28.9999 28.0142C28.9999 28.0092 28.9999 28.0052 28.9999 28.0002V16.0002C28.9999 15.9952 28.9999 15.9912 28.9999 15.9862C28.9999 15.4382 28.5489 14.9862 27.9999 14.9862C27.9949 14.9862 27.9899 14.9862 27.9839 14.9862ZM11.9839 12.9862C11.4369 12.9952 10.9919 13.4522 10.9999 14.0002V28.0002C10.9999 28.0052 10.9999 28.0092 10.9999 28.0142C10.9999 28.5632 11.4509 29.0142 11.9999 29.0142C12.5489 29.0142 12.9999 28.5632 12.9999 28.0142C12.9999 28.0092 12.9999 28.0052 12.9999 28.0002V14.0002C12.9999 13.9952 12.9999 13.9912 12.9999 13.9862C12.9999 13.4382 12.5489 12.9862 11.9999 12.9862C11.9949 12.9862 11.9899 12.9862 11.9839 12.9862ZM7.98386 2.98621C7.43686 2.99521 6.99186 3.45221 6.99986 4.00021V9.58621L3.29286 13.2932C3.10586 13.4802 2.99986 13.7352 2.99986 14.0002V28.0002C2.99986 28.0052 2.99986 28.0092 2.99986 28.0142C2.99986 28.5632 3.45086 29.0142 3.99986 29.0142C4.54886 29.0142 4.99986 28.5632 4.99986 28.0142C4.99986 28.0092 4.99986 28.0052 4.99986 28.0002V14.4142L8.70686 10.7072C8.89386 10.5202 8.99986 10.2652 8.99986 10.0002V4.00021C8.99986 3.99521 8.99986 3.99121 8.99986 3.98621C8.99986 3.43821 8.54886 2.98621 7.99986 2.98621C7.99486 2.98621 7.98986 2.98621 7.98386 2.98621V2.98621ZM15.9839 2.98621C15.4369 2.99521 14.9919 3.45221 14.9999 4.00021V20.0002C14.9999 20.2652 15.1059 20.5202 15.2929 20.7072L18.9999 24.4142V28.0002C18.9999 28.0052 18.9999 28.0092 18.9999 28.0142C18.9999 28.5632 19.4509 29.0142 19.9999 29.0142C20.5489 29.0142 20.9999 28.5632 20.9999 28.0142C20.9999 28.0092 20.9999 28.0052 20.9999 28.0002V24.0002C20.9999 23.7352 20.8939 23.4802 20.7069 23.2932L16.9999 19.5862V4.00021C16.9999 3.99521 16.9999 3.99121 16.9999 3.98621C16.9999 3.43821 16.5489 2.98621 15.9999 2.98621C15.9949 2.98621 15.9899 2.98621 15.9839 2.98621V2.98621ZM27.9839 2.98621C27.4369 2.99521 26.9919 3.45221 26.9999 4.00021V9.58621L23.2929 13.2932C23.1059 13.4802 22.9999 13.7352 22.9999 14.0002V28.0002C22.9999 28.0052 22.9999 28.0092 22.9999 28.0142C22.9999 28.5632 23.4509 29.0142 23.9999 29.0142C24.5489 29.0142 24.9999 28.5632 24.9999 28.0142C24.9999 28.0092 24.9999 28.0052 24.9999 28.0002V14.4142L28.7069 10.7072C28.8939 10.5202 28.9999 10.2652 28.9999 10.0002V4.00021C28.9999 3.99521 28.9999 3.99121 28.9999 3.98621C28.9999 3.43821 28.5489 2.98621 27.9999 2.98621C27.9949 2.98621 27.9899 2.98621 27.9839 2.98621V2.98621ZM23.9839 2.98621C23.4369 2.99521 22.9919 3.45221 22.9999 4.00021V7.58621L19.2929 11.2932C19.1059 11.4802 18.9999 11.7352 18.9999 12.0002V18.0002C18.9999 18.0052 18.9999 18.0092 18.9999 18.0142C18.9999 18.5632 19.4509 19.0142 19.9999 19.0142C20.5489 19.0142 20.9999 18.5632 20.9999 18.0142C20.9999 18.0092 20.9999 18.0052 20.9999 18.0002V12.4142L24.7069 8.70721C24.8939 8.52021 24.9999 8.26521 24.9999 8.00021V4.00021C24.9999 3.99521 24.9999 3.99121 24.9999 3.98621C24.9999 3.43821 24.5489 2.98621 23.9999 2.98621C23.9949 2.98621 23.9899 2.98621 23.9839 2.98621V2.98621ZM11.9839 2.98621C11.4369 2.99521 10.9919 3.45221 10.9999 4.00021V10.0002C10.9999 10.0052 10.9999 10.0092 10.9999 10.0142C10.9999 10.5632 11.4509 11.0142 11.9999 11.0142C12.5489 11.0142 12.9999 10.5632 12.9999 10.0142C12.9999 10.0092 12.9999 10.0052 12.9999 10.0002V4.00021C12.9999 3.99521 12.9999 3.99121 12.9999 3.98621C12.9999 3.43821 12.5489 2.98621 11.9999 2.98621C11.9949 2.98621 11.9899 2.98621 11.9839 2.98621V2.98621ZM3.98386 2.98621C3.43686 2.99521 2.99186 3.45221 2.99986 4.00021V8.00021C2.99986 8.00521 2.99986 8.00921 2.99986 8.01421C2.99986 8.56321 3.45086 9.01421 3.99986 9.01421C4.54886 9.01421 4.99986 8.56321 4.99986 8.01421C4.99986 8.00921 4.99986 8.00521 4.99986 8.00021V4.00021C4.99986 3.99521 4.99986 3.99121 4.99986 3.98621C4.99986 3.43821 4.54886 2.98621 3.99986 2.98621C3.99486 2.98621 3.98986 2.98621 3.98386 2.98621V2.98621ZM19.9839 2.98621C19.4369 2.99521 18.9919 3.45221 18.9999 4.00021V6.00021C18.9999 6.00521 18.9999 6.00921 18.9999 6.01421C18.9999 6.56321 19.4509 7.01421 19.9999 7.01421C20.5489 7.01421 20.9999 6.56321 20.9999 6.01421C20.9999 6.00921 20.9999 6.00521 20.9999 6.00021V4.00021C20.9999 3.99521 20.9999 3.99121 20.9999 3.98621C20.9999 3.43821 20.5489 2.98621 19.9999 2.98621C19.9949 2.98621 19.9899 2.98621 19.9839 2.98621V2.98621Z" fill="#3D4653"/>
</svg>
